<svg xmlns="http://www.w3.org/2000/svg" width="90" height="90" viewBox="0 0 90 90">
  <g id="그룹_42" data-name="그룹 42" transform="translate(-37.999 -363)">
    <path id="Donut_1" d="M44.481,0a6.077,6.077,0,0,1,0,12.153A32.882,32.882,0,0,0,12.095,40.132l-.072.489A6.041,6.041,0,1,1,.06,38.925,44.993,44.993,0,0,1,44.481,0Z" transform="translate(38 363)" fill="rgba(115,136,169,0.35)"/>
    <path id="Donut_0" d="M40.639,5.847A6.088,6.088,0,0,1,46.97.006,45,45,0,1,1,.446,38.656a6.074,6.074,0,1,1,12.026,1.723A32.868,32.868,0,1,0,46.838,12.236l-.394-.02A6.1,6.1,0,0,1,40.639,5.847Z" transform="translate(37.999 363.037)" fill="#79d2de"/>
    <text id="_76_" data-name="76%" transform="translate(83 413)" font-size="14" font-family="NanumGothicBold, NanumGothic"><tspan x="-18.305" y="0">Good</tspan></text>
  </g>
</svg>
